<svg width="20" height="20" viewBox="0 0 20 20" fill="none" xmlns="http://www.w3.org/2000/svg">
<path d="M10 20C15.5228 20 20 15.5228 20 10C20 4.47715 15.5228 0 10 0C4.47715 0 0 4.47715 0 10C0 15.5228 4.47715 20 10 20Z" fill="#2196F3"/>
<path d="M10.8288 3.80252C8.78376 3.54377 6.81251 4.24752 5.41751 5.74877C4.02501 7.25002 3.46626 9.28002 3.88501 11.32C4.37126 13.6825 6.19876 15.5525 8.54126 16.085C9.03126 16.1975 9.52126 16.2525 10.005 16.2525C10.9663 16.2525 11.9038 16.0338 12.7713 15.6038C13.08 15.45 13.2063 15.075 13.0538 14.765C12.8988 14.455 12.5263 14.3313 12.215 14.4825C11.1713 15.0013 9.99626 15.1338 8.81876 14.8663C6.98126 14.4488 5.49126 12.9213 5.11001 11.0688C4.77251 9.42877 5.22001 7.80002 6.33376 6.59877C7.44876 5.39877 9.02751 4.83252 10.6688 5.04252C13.1388 5.36252 15 7.60502 15 10.2613V10.625C15 11.315 14.44 11.875 13.75 11.875C13.06 11.875 12.5 11.315 12.5 10.625V8.12502C12.5 7.78002 12.22 7.50002 11.875 7.50002C11.6188 7.50002 11.4 7.65502 11.3038 7.87502C10.9313 7.64002 10.4938 7.50002 10 7.50002C8.52751 7.50002 7.50001 8.65627 7.50001 10.3125C7.50001 11.9688 8.52751 13.125 10 13.125C10.7763 13.125 11.4225 12.7975 11.8663 12.25C12.325 12.7813 12.995 13.125 13.75 13.125C15.1288 13.125 16.25 12.0038 16.25 10.625V10.2613C16.25 6.97877 13.92 4.20252 10.8288 3.80252ZM10 11.875C9.22876 11.875 8.75001 11.2763 8.75001 10.3125C8.75001 9.34877 9.22876 8.75002 10 8.75002C10.7713 8.75002 11.25 9.34877 11.25 10.3125C11.25 11.2763 10.7713 11.875 10 11.875Z" fill="#FAFAFA"/>
</svg>
