<svg width="25" height="25" viewBox="0 0 25 25" fill="none" xmlns="http://www.w3.org/2000/svg">
<g clip-path="url(#clip0)">
<path d="M12.5 8.27881C9.26914 8.27881 6.64062 10.9073 6.64062 14.1382C6.64062 17.369 9.26914 19.9976 12.5 19.9976C15.7309 19.9976 18.3594 17.369 18.3594 14.1382C18.3594 10.9073 15.7309 8.27881 12.5 8.27881ZM12.5 18.1226C10.303 18.1226 8.51562 16.3352 8.51562 14.1382C8.51562 11.9412 10.303 10.1538 12.5 10.1538C14.697 10.1538 16.4844 11.9412 16.4844 14.1382C16.4844 16.3352 14.697 18.1226 12.5 18.1226Z" fill="#969CA1"/>
<path d="M21.6875 5.46631H18.2387C18.1295 5.46631 18.0311 5.40673 17.9805 5.31036L17.0263 3.30537C17.0237 3.29989 17.0211 3.29445 17.0183 3.28901C16.649 2.55026 15.9064 2.09131 15.0804 2.09131H9.98638C9.16039 2.09131 8.4178 2.55026 8.04847 3.28906C8.0457 3.2945 8.04308 3.29993 8.04045 3.30542L7.08627 5.3105C7.03564 5.40673 6.9373 5.46631 6.82812 5.46631H3.3125C1.76169 5.46631 0.5 6.728 0.5 8.27881V20.9351C0.5 22.4859 1.76169 23.7476 3.3125 23.7476H21.6875C23.2383 23.7476 24.5 22.4859 24.5 20.9351V8.27881C24.5 6.728 23.2383 5.46631 21.6875 5.46631ZM22.625 20.935C22.625 21.4519 22.2044 21.8725 21.6875 21.8725H3.3125C2.79556 21.8725 2.375 21.4519 2.375 20.935V8.27881C2.375 7.76187 2.79556 7.34131 3.3125 7.34131H6.82812C7.65406 7.34131 8.39666 6.8824 8.76603 6.14365C8.7688 6.13821 8.77142 6.13273 8.77409 6.12725L9.72828 4.12217C9.77886 4.02589 9.8772 3.96631 9.98638 3.96631H15.0804C15.1896 3.96631 15.2879 4.02589 15.3385 4.12212L16.2927 6.1272C16.2954 6.13268 16.298 6.13817 16.3008 6.14361C16.6701 6.88236 17.4127 7.34126 18.2387 7.34126H21.6875C22.2044 7.34126 22.625 7.76182 22.625 8.27876V20.935Z" fill="#969CA1"/>
<path d="M20.75 9.21631H18.875V11.0913H20.75V9.21631Z" fill="#969CA1"/>
</g>
<defs>
<clipPath id="clip0">
<rect x="0.5" y="0.919434" width="24" height="24" fill="white"/>
</clipPath>
</defs>
</svg>
