<svg width="25" height="25" viewBox="0 0 25 25" fill="none" xmlns="http://www.w3.org/2000/svg">
<g opacity="0.48">
<g clip-path="url(#clip0)">
<path d="M7.4875 9.21973C7.71322 9.21973 7.93388 9.28666 8.12157 9.41207C8.30926 9.53748 8.45554 9.71573 8.54192 9.92427C8.62831 10.1328 8.65091 10.3623 8.60687 10.5837C8.56283 10.8051 8.45413 11.0084 8.29452 11.1681C8.13491 11.3277 7.93155 11.4364 7.71015 11.4804C7.48876 11.5244 7.25928 11.5018 7.05074 11.4155C6.84219 11.3291 6.66394 11.1828 6.53853 10.9951C6.41313 10.8074 6.34619 10.5868 6.34619 10.361C6.34619 10.0583 6.46643 9.76804 6.68047 9.55401C6.89451 9.33997 7.1848 9.21973 7.4875 9.21973Z" fill="#333D45"/>
<path d="M16.3897 9.21973C16.6154 9.21973 16.8361 9.28666 17.0238 9.41207C17.2115 9.53748 17.3578 9.71573 17.4441 9.92427C17.5305 10.1328 17.5531 10.3623 17.5091 10.5837C17.4651 10.8051 17.3564 11.0084 17.1967 11.1681C17.0371 11.3277 16.8338 11.4364 16.6124 11.4804C16.391 11.5244 16.1615 11.5018 15.953 11.4155C15.7444 11.3291 15.5662 11.1828 15.4408 10.9951C15.3153 10.8074 15.2484 10.5868 15.2484 10.361C15.2484 10.0583 15.3687 9.76804 15.5827 9.55401C15.7967 9.33997 16.087 9.21973 16.3897 9.21973Z" fill="#333D45"/>
<path d="M6.11816 15.6001C6.56881 16.6816 7.32951 17.6056 8.3044 18.2555C9.27929 18.9055 10.4248 19.2523 11.5964 19.2523C12.7681 19.2523 13.9136 18.9055 14.8885 18.2555C15.8633 17.6056 16.624 16.6816 17.0747 15.6001" stroke="#333D45" stroke-width="1.8" stroke-linecap="round" stroke-linejoin="round"/>
<path d="M11.5962 23.6001C17.3952 23.6001 22.0962 18.8991 22.0962 13.1001C22.0962 7.30111 17.3952 2.6001 11.5962 2.6001C5.7972 2.6001 1.09619 7.30111 1.09619 13.1001C1.09619 18.8991 5.7972 23.6001 11.5962 23.6001Z" stroke="#333D45" stroke-width="1.8" stroke-linecap="round" stroke-linejoin="round"/>
</g>
</g>
<defs>
<clipPath id="clip0">
<rect x="0.0961914" y="0.600098" width="24" height="24" fill="white"/>
</clipPath>
</defs>
</svg>
