<svg width="20" height="20" viewBox="0 0 20 20" fill="none" xmlns="http://www.w3.org/2000/svg">
<path d="M10 20C15.5228 20 20 15.5228 20 10C20 4.47715 15.5228 0 10 0C4.47715 0 0 4.47715 0 10C0 15.5228 4.47715 20 10 20Z" fill="#25B6D2"/>
<path d="M15.0241 5.625C15.3559 5.62531 15.6247 5.89406 15.625 6.22594V12.6203C15.6247 12.9522 15.3559 13.2209 15.0241 13.2213H12.8847V15.625L9.96687 13.2909L9.88125 13.2225H4.975C4.64312 13.2216 4.37469 12.9522 4.375 12.6203V6.22594C4.37531 5.89406 4.64406 5.62531 4.97594 5.625H15.0241ZM15.0241 5.3125H4.97594C4.47219 5.31406 4.06406 5.72219 4.0625 6.22594V12.6203C4.06406 13.1241 4.47219 13.5322 4.97594 13.5338H9.77156L13.1972 16.2741V13.5338H15.0241C15.5278 13.5322 15.9359 13.1241 15.9375 12.6203V6.22594C15.9359 5.72219 15.5278 5.31406 15.0241 5.3125Z" fill="white"/>
<path d="M6.0253 10.2303C6.20968 10.3456 6.42124 10.4096 6.63874 10.4156C6.97718 10.4156 7.13592 10.2462 7.13592 10.0346C7.13592 9.81276 7.00374 9.69088 6.65999 9.56401C6.19999 9.40026 5.98311 9.1462 5.98311 8.83964C6.00186 8.40402 6.36999 8.06621 6.80561 8.08464C6.82593 8.08558 6.84624 8.08714 6.86624 8.08964C7.08624 8.08746 7.3028 8.14214 7.49561 8.24808L7.37936 8.58652C7.22186 8.48902 7.04061 8.43745 6.85561 8.43745C6.5803 8.43745 6.42718 8.5962 6.42718 8.78651C6.42718 8.99808 6.5803 9.09308 6.91374 9.22026C7.35811 9.38932 7.5853 9.61151 7.5853 9.99245C7.5853 10.4418 7.23624 10.759 6.62811 10.759C6.37749 10.7637 6.12999 10.7034 5.90936 10.5843L6.0253 10.2303Z" fill="white"/>
<path d="M8.18311 8.83969C8.18311 8.57532 8.1778 8.35844 8.16217 8.14688H8.56842L8.58936 8.55938H8.6053C8.76186 8.26251 9.07342 8.08001 9.40905 8.08876C9.73592 8.08532 10.0281 8.29219 10.1334 8.60157H10.144C10.215 8.47188 10.3122 8.35844 10.4294 8.26876C10.5912 8.14469 10.7915 8.08094 10.9956 8.08907C11.334 8.08907 11.8362 8.31094 11.8362 9.19938V10.7066H11.3822V9.25751C11.3822 8.76594 11.2025 8.4697 10.8272 8.4697C10.5728 8.48032 10.3528 8.6497 10.2772 8.89282C10.2531 8.96813 10.2406 9.04657 10.2403 9.12563V10.7069H9.7853V9.17282C9.7853 8.76657 9.60561 8.46938 9.25123 8.46938C8.97936 8.48501 8.74748 8.67219 8.67467 8.93469C8.64873 9.00782 8.63623 9.08469 8.6378 9.16219V10.7063H8.18311V8.83969Z" fill="white"/>
<path d="M12.5313 10.2303C12.7157 10.3456 12.9272 10.4096 13.1447 10.4156C13.4832 10.4156 13.6419 10.2462 13.6419 10.0346C13.6419 9.81276 13.5097 9.69088 13.166 9.56401C12.706 9.40026 12.4891 9.1462 12.4891 8.83964C12.5079 8.40402 12.876 8.06621 13.3116 8.08464C13.3319 8.08558 13.3522 8.08714 13.3722 8.08964C13.5922 8.08746 13.8088 8.14214 14.0016 8.24808L13.8854 8.58652C13.7279 8.48902 13.5463 8.43745 13.3613 8.43745C13.086 8.43745 12.9329 8.5962 12.9329 8.78651C12.9329 8.99808 13.086 9.09308 13.4194 9.22026C13.8638 9.38932 14.091 9.61151 14.091 9.99245C14.091 10.4418 13.7419 10.759 13.1338 10.759C12.8832 10.7637 12.6357 10.7034 12.415 10.5843L12.5313 10.2303Z" fill="white"/>
</svg>
