<svg width="20" height="20" viewBox="0 0 20 20" fill="none" xmlns="http://www.w3.org/2000/svg">
<path d="M20 10C20 15.5229 15.5229 20 10 20C4.47708 20 0 15.5229 0 10C0 4.47708 4.47708 0 10 0C15.5229 0 20 4.47708 20 10Z" fill="#9330B2"/>
<path d="M19.999 10.0854L14.9111 4.99756C14.0227 4.03122 12.7489 3.42438 11.3358 3.42438H8.66428C5.98605 3.42438 3.80725 5.60333 3.80725 8.28156V10.1379C3.80725 11.4178 4.32605 12.6511 5.22159 13.5561V16.0088C5.22159 16.2029 5.3049 16.385 5.4462 16.5118L8.89301 19.9387C9.25662 19.9788 9.62589 20 10 20C15.4943 20 19.953 15.5688 19.999 10.0854Z" fill="#681F7B"/>
<path d="M11.3358 3.42456H8.66428C5.98605 3.42456 3.80725 5.60336 3.80725 8.28159V10.1381C3.80725 11.4179 4.32605 12.6511 5.22159 13.5561V16.0088C5.22159 16.2502 5.35037 16.4731 5.55927 16.594C5.66394 16.6544 5.78067 16.6846 5.8974 16.6846C6.01398 16.6846 6.13055 16.6545 6.23492 16.5943L9.00882 14.9951H11.3358C14.014 14.9951 16.1928 12.8163 16.1928 10.1381V8.28159C16.1928 5.60336 14.014 3.42456 11.3358 3.42456ZM15.1586 10.2141C15.1586 12.2518 13.4914 13.9191 11.4536 13.9191H9.27692L5.86368 16.0088V12.7614C5.23151 12.096 4.84149 11.1988 4.84149 10.2143V8.20544C4.84149 6.16779 6.50867 4.50061 8.54633 4.50061H11.4536C13.4912 4.50061 15.1586 6.16779 15.1586 8.20544V10.2141Z" fill="white"/>
<path d="M11.3359 3.42456H10V4.50061H11.4537C13.4912 4.50061 15.1584 6.16779 15.1584 8.20529V10.2143C15.1584 12.2519 13.4912 13.9191 11.4537 13.9191H10V14.9951H11.3359C14.014 14.9951 16.1929 12.8162 16.1929 10.1381V8.28159C16.1929 5.60321 14.014 3.42456 11.3359 3.42456Z" fill="#FFF5CB"/>
<path d="M9.29336 6.41874C9.28009 6.40561 9.2688 6.39005 9.25995 6.37235C9.21631 6.28461 9.25201 6.17811 9.33975 6.13431C10.2798 5.66602 11.5242 5.92664 12.3656 6.76801C13.2066 7.60907 13.4674 8.85281 12.9996 9.7926C12.9559 9.88034 12.8494 9.91605 12.7615 9.87241C12.6738 9.82876 12.6381 9.72226 12.6817 9.63452C13.0826 8.82932 12.8493 7.75373 12.1146 7.01886C11.3795 6.28385 10.3035 6.05085 9.49798 6.45215C9.42795 6.48694 9.34585 6.47123 9.29336 6.41874Z" fill="white"/>
<path d="M12.9996 9.79278C12.9561 9.88021 12.8493 9.91607 12.7617 9.87258C12.674 9.82864 12.6381 9.72228 12.6819 9.63439C13.0826 8.82919 12.8491 7.7539 12.1146 7.01888C11.5242 6.42852 10.7137 6.1621 10 6.28829V5.9291C10.8099 5.80947 11.7099 6.11251 12.3656 6.76788C13.2066 7.60925 13.4674 8.85299 12.9996 9.79278Z" fill="#FFF5CB"/>
<path d="M9.6965 7.19997C9.68231 7.18563 9.67025 7.16884 9.66125 7.14962C9.61959 7.06081 9.65789 6.95522 9.7467 6.91372C10.3929 6.61144 11.2085 6.78966 11.7761 7.35729C12.3436 7.92492 12.5221 8.73989 12.2203 9.38564C12.1786 9.47445 12.0731 9.51275 11.9842 9.47124C11.8956 9.42974 11.8573 9.32399 11.8986 9.23534C12.1376 8.72448 11.9875 8.07064 11.5251 7.6083C11.0628 7.14596 10.4086 6.99596 9.89715 7.23522C9.82757 7.26772 9.74777 7.25124 9.6965 7.19997Z" fill="white"/>
<path d="M12.2202 9.3857C12.1787 9.47436 12.0731 9.51266 11.9844 9.47115C11.8958 9.42965 11.857 9.32406 11.8985 9.23541C12.1376 8.72439 11.9876 8.0707 11.5254 7.60851C11.0933 7.17654 10.4941 7.01693 10 7.19302V6.82192C10.5957 6.66308 11.2808 6.86175 11.7761 7.35751C12.3439 7.92483 12.522 8.74011 12.2202 9.3857Z" fill="#FFF5CB"/>
<path d="M10.0952 7.98001C10.078 7.96292 10.0641 7.94186 10.0549 7.9176C10.0201 7.82605 10.0662 7.72351 10.1578 7.68872C10.4987 7.55932 10.9032 7.65988 11.1884 7.94507C11.4735 8.23025 11.5744 8.63461 11.4452 8.97504C11.4105 9.06674 11.308 9.11282 11.2164 9.07803C11.1247 9.04324 11.0786 8.94086 11.1134 8.84915C11.1919 8.64224 11.1211 8.37979 10.9373 8.19607C10.7538 8.01236 10.491 7.94186 10.2838 8.0206C10.2164 8.04608 10.1431 8.02792 10.0952 7.98001Z" fill="white"/>
<path d="M10.0952 7.98001C10.078 7.96292 10.0641 7.94186 10.0549 7.9176C10.0201 7.82605 10.0662 7.72351 10.1578 7.68872C10.4987 7.55932 10.9032 7.65988 11.1884 7.94507C11.4735 8.23025 11.5744 8.63461 11.4452 8.97504C11.4105 9.06674 11.308 9.11282 11.2164 9.07803C11.1247 9.04324 11.0786 8.94086 11.1134 8.84915C11.1919 8.64224 11.1211 8.37979 10.9373 8.19607C10.7538 8.01236 10.491 7.94186 10.2838 8.0206C10.2164 8.04608 10.1431 8.02792 10.0952 7.98001Z" fill="#FFF5CB"/>
<path d="M8.81411 7.66876L7.58212 6.43676C7.42556 6.28036 7.20446 6.24358 7.09063 6.35726L6.97161 6.47643C6.39117 7.05673 6.28375 7.90283 6.75524 8.47778C7.34042 9.19098 7.99151 9.91364 8.61743 10.5156C9.21939 11.1415 9.94204 11.7926 10.6552 12.3778C11.2302 12.8493 12.0763 12.7419 12.6566 12.1616L12.7758 12.0424C12.8894 11.9287 12.8527 11.7075 12.6961 11.5511L11.4641 10.3191C11.1717 10.0266 10.9789 10.067 10.865 10.1807C10.865 10.1807 10.7097 10.3386 10.6813 10.3712V10.3708C10.5706 10.4817 10.2899 10.5064 10.0365 10.3478C9.80578 10.2031 9.56698 9.99314 9.35244 9.78058C9.13989 9.56604 8.92993 9.32724 8.78527 9.09653C8.62658 8.84308 8.6513 8.56247 8.76223 8.45169H8.76178C8.79443 8.42331 8.95236 8.26797 8.95236 8.26797C9.06619 8.15414 9.10647 7.96127 8.81411 7.66876Z" fill="white"/>
<path d="M12.7759 12.0423L12.6566 12.1616C12.0763 12.7419 11.23 12.8492 10.6552 12.3777C10.4364 12.1984 10.2168 12.0125 10 11.8232V10.3243C10.0121 10.3324 10.0246 10.34 10.0366 10.3478C10.2898 10.5065 10.5707 10.4815 10.6815 10.3707V10.3716C10.7097 10.3385 10.8652 10.1809 10.8652 10.1809C10.9789 10.0669 11.1719 10.0266 11.4641 10.3191L12.6961 11.5511C12.8525 11.7075 12.8896 11.9288 12.7759 12.0423Z" fill="#FFF5CB"/>
</svg>
